<svg height="512" viewBox="0 0 512 512" width="512" xmlns="http://www.w3.org/2000/svg"><g id="Filled_outline" data-name="Filled outline"><path d="m136 320h48v48h-48z" fill="#bfbfbd"/><path d="m56 192h16a0 0 0 0 1 0 0v128a0 0 0 0 1 0 0h-16a32 32 0 0 1 -32-32v-64a32 32 0 0 1 32-32z" fill="#f35244"/><path d="m72 192h112v128h-112z" fill="#f35244" transform="matrix(-1 0 0 -1 256 512)"/><rect fill="#ebebe9" height="384" rx="20" width="40" x="336" y="64"/><path d="m424 288-48 8v-80l48 8z" fill="#f35244"/><path d="m171.2 440-27.2-120h-72l32 152h72a16 16 0 0 0 16-16 16 16 0 0 0 -16-16z" fill="#d6d6d4"/><path d="m336 84v344l-27.66-29.04a304.8 304.8 0 0 0 -124.34-78.96v-128a304.8 304.8 0 0 0 124.34-78.96z" fill="#e0e0de"/><path d="m336 226.46v201.54l-27.66-29.04a304.8 304.8 0 0 0 -124.34-78.96v-22.48c53.94-14.27 105.91-37.1 152-71.06z" fill="#dbdbd9"/><path d="m56 328h9.509l30.662 145.648a8 8 0 0 0 7.829 6.352h72a24 24 0 0 0 1.6-47.947l-12.7-56.053h19.1a8 8 0 0 0 8-8v-36.667a298.012 298.012 0 0 1 110.548 73.143l25.669 26.952a28 28 0 0 0 55.783-3.428v-125.222l41.315-6.886a8 8 0 0 0 6.685-7.892v-64a8 8 0 0 0 -6.685-7.892l-41.315-6.886v-125.222a28 28 0 0 0 -55.783-3.428l-25.669 26.952a297.911 297.911 0 0 1 -119.878 76.476h-126.67a40.045 40.045 0 0 0 -40 40v64a40.045 40.045 0 0 0 40 40zm115.2 120h4.8a8 8 0 0 1 0 16h-65.509l-28.632-136h55.751l25.79 113.769a8 8 0 0 0 7.8 6.231zm4.8-88h-14.73l-7.254-32h21.984zm240-129.223v50.446l-32 5.334v-61.114zm-60-158.777a12.013 12.013 0 0 1 12 12v344a12 12 0 0 1 -24 0v-344a12.013 12.013 0 0 1 12-12zm-41.866 46.56 13.866-14.56v304l-13.866-14.56a314.04 314.04 0 0 0 -122.134-79.149v-116.582a314.029 314.029 0 0 0 122.134-79.149zm-138.134 193.44h-96v-112h96zm-144-88a24.027 24.027 0 0 1 24-24h8v112h-8a24.027 24.027 0 0 1 -24-24z"/><path d="m96 256h16v32h-16z"/><path d="m128 256h16v32h-16z"/><path d="m447.525 204.8h48.951v16h-48.951z" transform="matrix(.981 -.196 .196 .981 -32.566 96.693)"/><path d="m420.402 44h79.196v16h-79.196z" transform="matrix(.707 -.707 .707 .707 97.949 340.484)"/><path d="m435.751 120h64.498v16.001h-64.498z" transform="matrix(.868 -.496 .496 .868 -1.844 249.054)"/><path d="m464 276.325h16v48.951h-16z" transform="matrix(.196 -.981 .981 .196 84.48 704.647)"/><path d="m452 422.002h16v79.196h-16z" transform="matrix(.707 -.707 .707 .707 -191.669 460.497)"/><path d="m460 353.351h16.001v64.498h-16.001z" transform="matrix(.496 -.868 .868 .496 -98.987 600.626)"/><path d="m309.136 167.045-10.272-12.268c-3.8 3.186-7.733 6.327-11.677 9.335l9.7 12.721c4.139-3.154 8.259-6.448 12.249-9.788z"/><path d="m283.754 186.377-9.1-13.162a330.947 330.947 0 0 1 -61.71 33.594l6.108 14.787a346.876 346.876 0 0 0 64.702-35.219z"/></g></svg>